<?xml version="1.0" encoding="utf-8"?>
<!-- Generator: Adobe Illustrator 24.3.0, SVG Export Plug-In . SVG Version: 6.00 Build 0)  -->
<svg version="1.1" id="Layer_1" xmlns="http://www.w3.org/2000/svg" xmlns:xlink="http://www.w3.org/1999/xlink" x="0px" y="0px"
	 viewBox="0 0 200 41.3" style="enable-background:new 0 0 200 41.3;" xml:space="preserve">
<style type="text/css">
	.st0{fill:url(#SVGID_1_);}
	.st1{opacity:0.2;fill:#232323;enable-background:new    ;}
	.st2{fill:#D06BFF;}
</style>
<g>
	<g>
		
			<linearGradient id="SVGID_1_" gradientUnits="userSpaceOnUse" x1="17.3823" y1="46.6421" x2="51.647" y2="46.6421" gradientTransform="matrix(1 0 0 -1 0 67.2842)">
			<stop  offset="0" style="stop-color:#D06BFF"/>
			<stop  offset="1" style="stop-color:#4F21FF"/>
		</linearGradient>
		<polygon class="st0" points="17.4,20.6 34.5,3.5 51.6,20.6 34.5,37.8 		"/>
		<polygon points="0.2,20.6 17.4,3.5 34.5,20.6 17.4,37.8 		"/>
		<polygon class="st1" points="25.9,12.1 34.5,20.6 25.9,29.2 27.2,30.4 36.9,20.6 27.2,10.9 		"/>
	</g>
	<g>
		<g>
			<polygon points="68.7,13.3 55.6,13.3 55.6,15.7 60.7,15.7 60.7,28.8 63.6,28.8 63.6,15.7 68.7,15.7 			"/>
			<path d="M78,17.6c-1-0.5-2-0.8-3.3-0.8c-1.2,0-2.3,0.3-3.2,0.8c-0.9,0.5-1.7,1.2-2.2,2.1c-0.5,0.9-0.8,2-0.8,3.1
				c0,1.2,0.3,2.2,0.8,3.1c0.5,0.9,1.3,1.6,2.2,2.2c0.9,0.5,2,0.8,3.2,0.8c1.2,0,2.3-0.3,3.3-0.8c1-0.5,1.7-1.2,2.2-2.2
				c0.5-0.9,0.8-2,0.8-3.1c0-1.2-0.3-2.2-0.8-3.1C79.7,18.8,78.9,18.1,78,17.6z M77.8,24.8c-0.3,0.6-0.7,1-1.3,1.3
				c-0.5,0.3-1.1,0.4-1.8,0.4c-0.7,0-1.3-0.1-1.8-0.4c-0.5-0.3-0.9-0.7-1.3-1.3c-0.3-0.6-0.5-1.2-0.5-2c0-0.8,0.2-1.4,0.5-2
				c0.3-0.6,0.7-1,1.3-1.3c0.5-0.3,1.1-0.4,1.8-0.4c0.7,0,1.3,0.1,1.8,0.4s0.9,0.7,1.3,1.3c0.3,0.6,0.5,1.2,0.5,2
				C78.2,23.6,78.1,24.3,77.8,24.8z"/>
			<path d="M92.3,17.6c-1-0.5-2-0.8-3.3-0.8c-1.2,0-2.3,0.3-3.2,0.8c-0.9,0.5-1.7,1.2-2.2,2.1c-0.5,0.9-0.8,2-0.8,3.1
				c0,1.2,0.3,2.2,0.8,3.1c0.5,0.9,1.3,1.6,2.2,2.2s2,0.8,3.2,0.8c1.2,0,2.3-0.3,3.3-0.8c1-0.5,1.7-1.2,2.2-2.2
				c0.5-0.9,0.8-2,0.8-3.1c0-1.2-0.3-2.2-0.8-3.1C94,18.8,93.2,18.1,92.3,17.6z M92.1,24.8c-0.3,0.6-0.7,1-1.3,1.3
				c-0.5,0.3-1.1,0.4-1.8,0.4c-0.7,0-1.3-0.1-1.8-0.4c-0.5-0.3-0.9-0.7-1.3-1.3c-0.3-0.6-0.5-1.2-0.5-2c0-0.8,0.2-1.4,0.5-2
				c0.3-0.6,0.7-1,1.3-1.3s1.1-0.4,1.8-0.4c0.7,0,1.3,0.1,1.8,0.4c0.5,0.3,0.9,0.7,1.3,1.3c0.3,0.6,0.5,1.2,0.5,2
				C92.5,23.6,92.4,24.3,92.1,24.8z"/>
			<rect x="98" y="12.3" width="2.8" height="16.4"/>
		</g>
		<g>
			<polygon class="st2" points="120.6,11.7 114.9,21.3 109.1,11.7 106.2,11.7 106.2,27.2 109.5,27.2 109.5,18.1 114.1,25.6 
				115.7,25.6 120.2,17.9 120.3,27.2 123.6,27.2 123.6,11.7 			"/>
			<path class="st2" d="M136.1,15.9c-1-0.5-2.1-0.8-3.4-0.8c-1.3,0-2.4,0.3-3.4,0.8c-1,0.5-1.8,1.2-2.3,2.2c-0.6,0.9-0.9,2-0.9,3.2
				c0,1.2,0.3,2.2,0.9,3.2c0.6,0.9,1.3,1.6,2.3,2.2c1,0.5,2.1,0.8,3.4,0.8c1.3,0,2.4-0.3,3.4-0.8s1.8-1.3,2.3-2.2
				c0.6-0.9,0.8-2,0.8-3.2c0-1.2-0.3-2.3-0.8-3.2C137.9,17.1,137.1,16.4,136.1,15.9z M135.4,23c-0.3,0.5-0.6,0.9-1.1,1.1
				c-0.5,0.3-1,0.4-1.6,0.4c-0.6,0-1.1-0.1-1.5-0.4c-0.5-0.3-0.8-0.6-1.1-1.1c-0.3-0.5-0.4-1.1-0.4-1.8c0-0.7,0.1-1.3,0.4-1.8
				c0.3-0.5,0.6-0.9,1.1-1.1c0.5-0.3,1-0.4,1.5-0.4c0.6,0,1.1,0.1,1.6,0.4c0.5,0.3,0.8,0.6,1.1,1.1c0.3,0.5,0.4,1.1,0.4,1.8
				C135.8,21.9,135.6,22.5,135.4,23z"/>
			<path class="st2" d="M144.9,16.9v-1.6h-3.3v11.9h3.5v-5.6c0-1.1,0.3-2,0.9-2.5s1.3-0.8,2.3-0.8c0.1,0,0.3,0,0.4,0
				c0.1,0,0.3,0,0.4,0v-3.2c-1.1,0-2.1,0.2-2.9,0.7C145.6,16.1,145.2,16.5,144.9,16.9z"/>
			<path class="st2" d="M161.1,15.9c-0.9-0.5-1.9-0.8-3-0.8c-1,0-1.9,0.2-2.7,0.7c-0.4,0.2-0.7,0.5-1,0.9v-1.4H151v16.2h3.5v-5.6
				c0.3,0.3,0.6,0.6,1,0.8c0.8,0.4,1.6,0.7,2.6,0.7c1.1,0,2.1-0.3,3-0.8c0.9-0.5,1.6-1.2,2.1-2.1c0.5-0.9,0.8-2,0.8-3.3
				c0-1.2-0.3-2.3-0.8-3.2C162.7,17.1,162,16.4,161.1,15.9z M160.1,23c-0.3,0.5-0.6,0.9-1.1,1.1c-0.5,0.3-1,0.4-1.5,0.4
				c-0.6,0-1.1-0.1-1.6-0.4c-0.5-0.3-0.8-0.6-1.1-1.1c-0.3-0.5-0.4-1.1-0.4-1.8c0-0.7,0.1-1.3,0.4-1.8c0.3-0.5,0.6-0.9,1.1-1.1
				c0.5-0.3,1-0.4,1.6-0.4c0.6,0,1.1,0.1,1.5,0.4c0.4,0.3,0.8,0.6,1.1,1.1c0.3,0.5,0.4,1.1,0.4,1.8C160.5,21.9,160.4,22.5,160.1,23z
				"/>
			<path class="st2" d="M176.1,15.7c-0.7-0.4-1.6-0.6-2.5-0.6c-1,0-1.9,0.2-2.7,0.6c-0.4,0.2-0.8,0.5-1.1,0.8v-5.8h-3.5v16.4h3.5
				v-5.9c0-0.7,0.1-1.3,0.4-1.8c0.2-0.5,0.6-0.8,1-1.1c0.4-0.2,0.9-0.3,1.5-0.3c0.8,0,1.4,0.2,1.8,0.7s0.6,1.2,0.6,2.1v6.3h3.5v-6.8
				c0-1.2-0.2-2.2-0.6-3C177.4,16.6,176.8,16.1,176.1,15.7z"/>
			<rect x="181.6" y="15.3" class="st2" width="3.5" height="11.9"/>
			<path class="st2" d="M183.3,9.8c-0.6,0-1.2,0.2-1.5,0.6c-0.4,0.4-0.6,0.8-0.6,1.4c0,0.5,0.2,1,0.6,1.4c0.4,0.4,0.9,0.6,1.5,0.6
				c0.7,0,1.2-0.2,1.6-0.6c0.4-0.4,0.6-0.9,0.6-1.4c0-0.5-0.2-1-0.6-1.3C184.5,10,184,9.8,183.3,9.8z"/>
			<polygon class="st2" points="195.1,21.1 199.6,15.3 195.9,15.3 193.3,18.8 190.8,15.3 186.9,15.3 191.3,21.2 186.8,27.2 
				190.5,27.2 193.2,23.6 195.8,27.2 199.8,27.2 			"/>
		</g>
	</g>
</g>
</svg>
