<?xml version="1.0" encoding="utf-8"?>
<!-- Generator: Adobe Illustrator 24.3.0, SVG Export Plug-In . SVG Version: 6.00 Build 0)  -->
<svg version="1.1" id="Layer_1" xmlns="http://www.w3.org/2000/svg" xmlns:xlink="http://www.w3.org/1999/xlink" x="0px" y="0px"
	 viewBox="0 0 32 32" style="enable-background:new 0 0 32 32;" xml:space="preserve">
<g>
	<path d="M31.6,22.9C31.1,22,30,21.6,29,22.1c-1.7,0.9-3.5,1.7-5.2,2.6c-0.2,0.1-0.2,0.2-0.2,0.3c-0.2,1.7-1.8,2.9-3.4,2.5
		c-1.6-0.4-3.2-0.8-4.8-1.3c-0.3-0.1-0.4-0.3-0.4-0.6c0.1-0.3,0.3-0.5,0.7-0.3c1.5,0.4,2.9,0.8,4.4,1.2c0.6,0.2,1.2,0.1,1.7-0.3
		c0.6-0.4,0.9-1.1,0.8-1.8c-0.1-0.8-0.6-1.3-1.4-1.6c-3.4-0.9-6.8-1.8-10.2-2.7C10.2,20,9.5,20,8.7,20.1c-1.3,0.2-2.2,1-3.3,1.6
		c0.7,2.4,1.4,4.7,2.1,7c0,0.1,0.2,0.2,0.3,0.2c2.7,0.7,5.4,1.5,8.1,2.2c1.3,0.3,2.5,0.3,3.7-0.3c3.7-1.8,7.3-3.6,11-5.4
		C31.6,25,32,23.9,31.6,22.9z"/>
	<path d="M13.2,18.8c0.6,0.3,1.2,0.6,1.9,0.8c1.7,0.5,3.5,0.5,5.3,0.5c1.2,0,2.4-0.2,3.6-0.6c0.8-0.3,1.6-0.7,2.3-1.3
		c-2.3-0.7-3.8-2.1-4.2-4.5c-0.4-2.4,0.7-4.2,2.7-5.5c-0.5-0.6-0.9-1.2-1.4-1.8c-0.5,0.4-1.1,0.4-1.7,0.4c-1.6,0-3.1,0-4.7,0
		c-0.6,0-1.2,0-1.7-0.3c-0.9,0.9-2.4,3.1-3.1,4.5c-0.6,1.2-1,2.4-1.1,3.8C11,16.4,11.7,17.8,13.2,18.8z M18.6,9.4
		c0.2-0.1,0.3-0.2,0.3-0.4c0-0.1,0-0.2,0-0.3c0-0.3,0.2-0.4,0.5-0.4c0.3,0,0.5,0.2,0.5,0.5c0,0.2,0,0.4,0,0.6
		c0.2,0.1,0.5,0.2,0.7,0.4c0.6,0.4,0.9,0.9,0.9,1.6c0,0.4-0.1,0.6-0.4,0.6c-0.3,0-0.5-0.2-0.6-0.5c-0.1-0.6-0.5-1-1.1-1
		c-0.6,0-1,0.4-1.1,0.9c-0.1,0.6,0.4,1.1,1.1,1.2c0.6,0,1.1,0.2,1.5,0.6c1.1,1,0.7,2.8-0.7,3.3c-0.1,0-0.2,0.1-0.3,0.1
		c0,0.2,0,0.4,0,0.6c0,0.3-0.2,0.5-0.5,0.5c-0.3,0-0.5-0.2-0.5-0.5c0.1-0.5-0.2-0.7-0.6-0.9c-0.7-0.3-1-0.9-1.1-1.6
		c0-0.4,0.1-0.6,0.4-0.6c0.3,0,0.5,0.1,0.6,0.5c0.1,0.9,1,1.3,1.8,0.8c0.3-0.2,0.5-0.6,0.5-1c-0.1-0.4-0.4-0.7-0.8-0.8
		c-0.2,0-0.3,0-0.5-0.1c-1-0.1-1.8-0.8-1.9-1.8C17.1,10.7,17.7,9.8,18.6,9.4z"/>
	<path d="M23.1,12.9c0,2.4,1.9,4.3,4.3,4.3c2.4,0,4.3-1.9,4.3-4.3c0-2.4-1.9-4.3-4.3-4.3C25,8.5,23.1,10.5,23.1,12.9z M25.5,11.7
		c-0.1-0.1-0.2-0.2-0.2-0.2c-0.2-0.2-0.2-0.5,0-0.7c0.2-0.2,0.5-0.2,0.7,0c0.4,0.4,0.8,0.8,1.2,1.2c0.1,0.1,0.1,0.2,0.2,0.3
		c0.5-0.5,0.8-0.8,1.2-1.2c0.1-0.1,0.2-0.2,0.2-0.2c0.2-0.2,0.5-0.2,0.7,0c0.2,0.2,0.2,0.5,0,0.7c-0.4,0.4-0.8,0.8-1.2,1.2
		c-0.1,0.1-0.1,0.1-0.2,0.2c0.5,0.5,0.9,0.9,1.4,1.4c0.2,0.2,0.2,0.4,0.1,0.6c-0.1,0.2-0.3,0.3-0.6,0.2c-0.1,0-0.2-0.1-0.3-0.2
		c-0.4-0.4-0.9-0.9-1.3-1.3c-0.4,0.4-0.8,0.8-1.2,1.1c-0.1,0.1-0.2,0.2-0.3,0.3c-0.2,0.2-0.5,0.2-0.7,0c-0.2-0.2-0.2-0.5,0-0.7
		c0.4-0.4,0.7-0.8,1.1-1.1c0.1-0.1,0.2-0.1,0.3-0.3C26.3,12.4,25.9,12.1,25.5,11.7z"/>
	<path d="M5.1,24.3c-0.3-1.1-0.7-2.2-1-3.3c-0.1-0.3-0.2-0.5-0.5-0.5c-0.1,0-0.2,0-0.3,0.1c-0.9,0.3-1.7,0.5-2.6,0.8
		c-0.5,0.1-0.6,0.3-0.4,0.8c0.9,3,1.8,6,2.7,9.1c0.1,0.5,0.3,0.6,0.8,0.4c0.8-0.2,1.7-0.5,2.5-0.8C6.9,30.8,7,30.6,6.8,30
		C6.3,28.1,5.7,26.2,5.1,24.3z"/>
	<path d="M15.6,2.9c0.5,0,0.8-0.1,1.2-0.1c1.2,0,2.4,0,3.6,0c0.9,0,1.8-0.1,2.6,0.1c0.3-0.5,0.7-1,1-1.5c0.2-0.3,0.2-0.6,0-0.8
		c-0.2-0.3-0.4-0.4-0.7-0.3c-0.9,0.1-1.9,0.2-2.8,0.4c-0.5,0.1-1,0.1-1.5,0.1c-1.2-0.1-2.5-0.3-3.7-0.5c-0.3,0-0.5,0.1-0.7,0.3
		c-0.2,0.3-0.1,0.5,0,0.8C15,1.9,15.3,2.4,15.6,2.9z"/>
	<path d="M22.3,3.8c-2,0-3.9,0-5.9,0c-0.5,0-0.9,0.4-0.9,0.9c-0.1,0.6,0.4,1,1,1c0.9,0,1.9,0,2.8,0c0,0,0,0,0,0c1,0,2,0,2.9,0
		c0.6,0,0.9-0.4,0.9-0.9C23.2,4.2,22.8,3.8,22.3,3.8z"/>
	<path d="M25.1,21.1c-0.9,0.4-1.8,0.9-2.7,1.3c0.3,0.5,0.7,0.9,1,1.4c1.3-0.6,2.5-1.3,3.8-1.9C26.8,21.1,25.9,20.7,25.1,21.1z"/>
</g>
</svg>
