<?xml version="1.0" encoding="utf-8"?>
<!-- Generator: Adobe Illustrator 24.3.0, SVG Export Plug-In . SVG Version: 6.00 Build 0)  -->
<svg version="1.1" id="Layer_1" xmlns="http://www.w3.org/2000/svg" xmlns:xlink="http://www.w3.org/1999/xlink" x="0px" y="0px"
	 viewBox="0 0 32 32" style="enable-background:new 0 0 32 32;" xml:space="preserve">
<g>
	<path d="M27.6,9.5c-1.9,0-3.9,0-5.8,0c-1.9,0-3-1.1-3-3c0-2.1,0-4.1,0-6.2c-4.1,0-8.2,0-12.4,0C6,0.4,5.6,0.5,5.2,0.7
		C4.4,1.3,4,2.1,4,3.1C4,5.4,4,7.7,4,10c0,6.3,0,12.6,0,18.9c0,1.5,0.9,2.6,2.4,2.9c0.2,0,0.3,0,0.5,0c6.1,0,12.1,0,18.2,0
		c1.7,0,2.9-1.2,2.9-2.9c0-6.3,0-12.7,0-19c0-0.1,0-0.2,0-0.3C27.9,9.5,27.8,9.5,27.6,9.5z M17.7,26.2c-2.4,0-4.8,0-7.2,0
		c-0.6,0-1-0.4-1-0.9c0-0.5,0.4-0.9,1-0.9c1.2,0,2.4,0,3.6,0c1.2,0,2.4,0,3.6,0c0.6,0,1,0.4,1,0.9C18.8,25.8,18.3,26.2,17.7,26.2z
		 M22.4,21.9c-0.2,0.4-0.5,0.5-0.9,0.5c-1.8,0-3.6,0-5.4,0c-1.8,0-3.6,0-5.5,0c-0.7,0-1.2-0.7-0.9-1.3c0.2-0.4,0.5-0.5,0.9-0.5
		c1.9,0,3.8,0,5.7,0c1.8,0,3.5,0,5.3,0C22.2,20.6,22.7,21.3,22.4,21.9z M22.4,18.2c-0.2,0.4-0.5,0.6-0.9,0.6c-1.2,0-2.5,0-3.7,0
		c-2.4,0-4.8,0-7.2,0c-0.7,0-1.2-0.7-0.9-1.3c0.2-0.4,0.5-0.6,0.9-0.6c1.8,0,3.6,0,5.4,0c1.8,0,3.6,0,5.5,0
		C22.2,16.9,22.7,17.6,22.4,18.2z M22.4,14.5c-0.2,0.4-0.5,0.6-0.9,0.6c-1.8,0-3.6,0-5.4,0c-1.8,0-3.6,0-5.5,0
		c-0.7,0-1.2-0.7-0.9-1.3c0.2-0.4,0.5-0.6,0.9-0.6c1.1,0,2.2,0,3.2,0c2.6,0,5.1,0,7.7,0C22.2,13.2,22.7,13.9,22.4,14.5z"/>
	<path d="M21.7,7.6c1.8,0,3.7,0,5.5,0c0.1,0,0.2,0,0.2,0c-2.3-2.3-4.5-4.5-6.8-6.8c0,0.1,0,0.2,0,0.2c0,1.8,0,3.7,0,5.5
		C20.6,7.3,21,7.6,21.7,7.6z"/>
</g>
</svg>
