<?xml version="1.0" encoding="utf-8"?>
<!-- Generator: Adobe Illustrator 24.3.0, SVG Export Plug-In . SVG Version: 6.00 Build 0)  -->
<svg version="1.1" id="Layer_1" xmlns="http://www.w3.org/2000/svg" xmlns:xlink="http://www.w3.org/1999/xlink" x="0px" y="0px"
	 viewBox="0 0 32 32" style="enable-background:new 0 0 32 32;" xml:space="preserve">
<g>
	<path d="M31.2,8.13c0.09,0,0.17-0.01,0.26,0c0.23,0.03,0.3-0.07,0.3-0.29c-0.01-0.54,0-1.08,0-1.62c0-0.4,0-0.8,0-1.22
		c-10.52,0-21,0-31.5,0c0,1.04,0,2.05,0,3.14c0.19,0,0.36,0,0.53,0C10.92,8.13,21.06,8.13,31.2,8.13z"/>
	<path d="M31.72,14.45c-10.5,0-20.99,0-31.47,0c0,1.05,0,2.07,0,3.09c10.51,0,20.99,0,31.49,0c0-0.99,0-1.95,0-2.91
		C31.74,14.58,31.73,14.52,31.72,14.45z"/>
	<path d="M0.25,27.01c10.5,0,20.97,0,31.47,0c0-1.06,0-2.08,0-3.1c-10.51,0-20.99,0-31.47,0C0.25,24.96,0.25,25.97,0.25,27.01z"/>
</g>
</svg>
