<?xml version="1.0" encoding="utf-8"?>
<!-- Generator: Adobe Illustrator 24.3.0, SVG Export Plug-In . SVG Version: 6.00 Build 0)  -->
<svg version="1.1" id="Layer_1" xmlns="http://www.w3.org/2000/svg" xmlns:xlink="http://www.w3.org/1999/xlink" x="0px" y="0px"
	 viewBox="0 0 32 32" style="enable-background:new 0 0 32 32;" xml:space="preserve">
<g>
	<path d="M18.15,12.62c-5.06-0.01-10.13-0.01-15.19,0c-1.17,0-2.21,0.79-2.58,1.9c-0.05,0.16-0.09,0.33-0.14,0.5
		c0,3.74,0,7.48,0,11.22c0.09-0.06,0.19-0.11,0.27-0.18c1.8-1.56,3.59-3.12,5.39-4.68c0.51-0.44,0.89-0.46,1.43-0.06
		c0.98,0.73,1.95,1.47,2.93,2.2c0.09,0.07,0.18,0.13,0.27,0.19c1.58-1.44,3.14-2.86,4.71-4.28c0.56-0.51,1.01-0.5,1.55,0.04
		c1.26,1.26,2.52,2.53,3.78,3.79c0.08,0.08,0.16,0.15,0.25,0.24c0.02-0.06,0.03-0.08,0.03-0.11c0-2.72,0.02-5.44-0.01-8.16
		C20.83,13.79,19.59,12.62,18.15,12.62z M10.59,20.37c-1.59,0-2.89-1.31-2.89-2.9c0-1.6,1.31-2.9,2.91-2.89
		c1.59,0.01,2.89,1.32,2.88,2.92C13.47,19.08,12.17,20.37,10.59,20.37z"/>
	<path d="M20.66,25.94c-1.48-1.48-2.96-2.96-4.44-4.44c-0.08-0.08-0.13-0.19-0.2-0.29c-0.14,0.13-0.22,0.19-0.29,0.26
		c-1.48,1.35-2.96,2.69-4.44,4.04c-0.45,0.41-0.87,0.43-1.35,0.06c-0.99-0.74-1.97-1.48-2.95-2.22c-0.1-0.07-0.2-0.14-0.3-0.22
		c-1.41,1.22-2.8,2.44-4.2,3.65C1.75,27.43,1,28.06,0.25,28.7c0,0.04,0,0.08,0,0.12c0.02,0.04,0.04,0.07,0.05,0.11
		c0.38,1.51,1.37,2.29,2.92,2.29c2.57,0,5.15,0,7.72,0c2.38,0,4.76,0.01,7.13,0c1.4,0,2.56-0.95,2.74-2.34
		c0.11-0.81,0.04-1.64,0.06-2.46C20.87,26.22,20.8,26.08,20.66,25.94z"/>
	<path d="M28.85,0.77c-6.9,0-13.8,0-20.7,0c-1.74,0-2.91,1.18-2.92,2.92c0,1.81,0,3.62,0,5.42c0,0.53,0,1.07,0,1.64
		c0.16,0,0.28,0,0.4,0c4.1,0,8.2,0,12.3,0c2.77,0,4.77,2.01,4.77,4.78c0,3.46,0,6.92,0,10.38c0,0.12,0,0.24,0,0.37
		c0.14,0,0.23,0,0.32,0c1.95,0,3.9,0,5.84,0c1.69,0,2.88-1.2,2.88-2.9c0-6.57,0-13.15,0-19.72C31.75,1.96,30.56,0.77,28.85,0.77z
		 M28.73,8.12c0,0.52-0.42,0.92-0.93,0.92c-0.5,0-0.9-0.4-0.91-0.93c-0.01-0.38,0-0.75,0-1.13c-0.02-0.01-0.05-0.02-0.07-0.03
		c-0.9,0.91-1.81,1.82-2.71,2.73c-0.26,0.26-0.57,0.41-0.94,0.31c-0.72-0.18-0.95-1.03-0.41-1.58c0.71-0.73,1.43-1.44,2.15-2.16
		c0.2-0.2,0.42-0.4,0.62-0.59c-0.01-0.03-0.02-0.05-0.02-0.08c-0.3,0-0.6,0.01-0.89,0c-0.17,0-0.35,0-0.51-0.05
		c-0.43-0.12-0.7-0.53-0.66-0.96c0.04-0.44,0.4-0.83,0.85-0.83c1.2-0.02,2.4-0.02,3.59,0c0.47,0.01,0.84,0.41,0.84,0.9
		C28.74,5.8,28.74,6.96,28.73,8.12z"/>
	<path d="M10.58,16.43c-0.58,0-1.05,0.49-1.03,1.07c0.01,0.57,0.49,1.03,1.05,1.02c0.58-0.01,1.05-0.49,1.03-1.07
		C11.62,16.88,11.14,16.43,10.58,16.43z"/>
</g>
</svg>
