<?xml version="1.0" encoding="utf-8"?>
<!-- Generator: Adobe Illustrator 24.3.0, SVG Export Plug-In . SVG Version: 6.00 Build 0)  -->
<svg version="1.1" id="Layer_1" xmlns="http://www.w3.org/2000/svg" xmlns:xlink="http://www.w3.org/1999/xlink" x="0px" y="0px"
	 viewBox="0 0 32 32" style="enable-background:new 0 0 32 32;" xml:space="preserve">
<g>
	<path d="M16,31.73c-2.2,0-4.4,0.03-6.6-0.01c-4.59-0.09-8.49-3.64-9.05-8.2c-0.05-0.44-0.08-0.88-0.08-1.32
		c-0.01-4.13-0.04-8.26,0.01-12.39c0.05-4.08,1.99-7,5.66-8.75c1.07-0.51,2.23-0.77,3.43-0.77c4.41-0.01,8.83-0.05,13.24,0.01
		c4.58,0.05,8.5,3.64,9.05,8.2c0.04,0.33,0.07,0.66,0.07,0.99c0,4.38,0.04,8.76-0.01,13.13c-0.06,4.59-3.64,8.5-8.2,9.05
		c-0.49,0.06-0.98,0.08-1.47,0.08C20.04,31.74,18.02,31.74,16,31.73C16,31.73,16,31.73,16,31.73z M18.9,11.57
		c-0.05-0.04-0.1-0.07-0.15-0.11c0-1.04,0-2.08,0-3.13c0-0.21-0.01-0.42-0.08-0.61c-0.19-0.53-0.72-0.84-1.25-0.75
		c-0.62,0.1-1.02,0.57-1.02,1.25c-0.01,1.78-0.01,3.57,0,5.35c0.01,1.21,0.84,2.04,2.05,2.05c1.77,0.01,3.54,0.01,5.31,0
		c0.75,0,1.29-0.5,1.3-1.17c0.01-0.69-0.53-1.18-1.31-1.19c-0.97,0-1.94,0-2.92,0c-0.1,0-0.2-0.01-0.37-0.03
		c0.14-0.15,0.23-0.25,0.32-0.34c1.3-1.3,2.59-2.59,3.89-3.89c0.37-0.37,0.47-0.8,0.29-1.29C24.8,7.26,24.45,7,23.97,6.96
		c-0.41-0.04-0.73,0.14-1.02,0.42c-1.27,1.28-2.56,2.56-3.83,3.84C19.03,11.32,18.97,11.45,18.9,11.57z M11.46,18.75
		c0.04,0.05,0.07,0.1,0.11,0.15c-0.12,0.07-0.25,0.12-0.34,0.22c-1.28,1.27-2.56,2.56-3.84,3.83c-0.29,0.28-0.46,0.61-0.42,1.02
		c0.04,0.49,0.3,0.84,0.75,1.01c0.48,0.18,0.92,0.07,1.29-0.29c1.31-1.3,2.61-2.61,3.91-3.91c0.09-0.09,0.18-0.17,0.34-0.32
		c0,0.22,0,0.34,0,0.46c0,0.96-0.02,1.92,0.01,2.88c0.01,0.27,0.09,0.56,0.23,0.79c0.27,0.43,0.82,0.58,1.31,0.42
		c0.49-0.16,0.81-0.61,0.81-1.2c0.01-1.8,0.02-3.59,0-5.39c-0.01-1.19-0.85-2-2.05-2.01c-0.76-0.01-1.53,0-2.29,0
		c-1.02,0-2.04-0.01-3.06,0C7.34,16.4,6.79,17.1,7,17.89c0.14,0.52,0.59,0.86,1.19,0.86C9.27,18.75,10.36,18.75,11.46,18.75z"/>
</g>
</svg>
