<?xml version="1.0" encoding="utf-8"?>
<!-- Generator: Adobe Illustrator 24.3.0, SVG Export Plug-In . SVG Version: 6.00 Build 0)  -->
<svg version="1.1" id="Layer_1" xmlns="http://www.w3.org/2000/svg" xmlns:xlink="http://www.w3.org/1999/xlink" x="0px" y="0px"
	 viewBox="0 0 32 32" style="enable-background:new 0 0 32 32;" xml:space="preserve">
<g>
	<path d="M22.1,0.2c-0.6,0.2-1,0.6-1.4,1c-4.5,4.5-8.9,8.9-13.4,13.4c-0.5,0.5-0.8,1.2-0.6,1.9c0.1,0.3,0.3,0.6,0.5,0.8
		c4.6,4.6,9.2,9.3,13.9,13.9c0.8,0.8,1.8,0.8,2.6,0c0.4-0.4,0.7-0.7,1.1-1.1c0.6-0.7,0.5-1.6,0-2.2c-0.1-0.1-0.2-0.2-0.3-0.3
		C20.8,23.8,17,20,13.3,16.3c-0.1-0.1-0.2-0.2-0.4-0.4c0.1-0.1,0.2-0.1,0.3-0.2c3.8-3.8,7.6-7.6,11.4-11.4c0.7-0.7,0.8-1.7,0.3-2.3
		c-0.6-0.7-1.2-1.4-2.1-1.7C22.6,0.2,22.4,0.2,22.1,0.2z"/>
</g>
</svg>
