<?xml version="1.0" encoding="utf-8"?>
<!-- Generator: Adobe Illustrator 24.3.0, SVG Export Plug-In . SVG Version: 6.00 Build 0)  -->
<svg version="1.1" id="Layer_1" xmlns="http://www.w3.org/2000/svg" xmlns:xlink="http://www.w3.org/1999/xlink" x="0px" y="0px"
	 viewBox="0 0 32 32" style="enable-background:new 0 0 32 32;" xml:space="preserve">
<g>
	<path d="M2.3,0.7C2.2,0.7,2.2,0.6,2.1,0.5C1.4,0,0.5,0.3,0.3,1.1c-0.1,0.5,0,0.8,0.4,1.2c1.6,1.6,3.2,3.2,4.8,4.8
		c-4.1,2.6-5.9,6.3-5,11c0.8,4.1,3.4,6.7,7.4,7.7c4.9,1.2,8.7-0.7,11.4-4.9c0.1,0.1,0.2,0.2,0.3,0.2c3.4,3.4,6.7,6.7,10.1,10.1
		c0.1,0.1,0.2,0.2,0.3,0.3c0.6,0.5,1.6,0.2,1.8-0.6c0.1-0.5-0.1-0.9-0.4-1.3C21.6,20,12,10.4,2.3,0.7z M10.3,20.5
		c-2.2,0-4.1-1.6-4.4-3.8c0-0.2-0.1-0.5-0.1-0.7c0-2.2,1.6-4.1,3.8-4.4c0.2,0,0.4,0,0.6,0.2c1.5,1.5,3,3,4.4,4.4
		c0.2,0.2,0.2,0.3,0.2,0.5C14.5,18.9,12.5,20.5,10.3,20.5z"/>
	<path d="M21.9,19.2c0.1,0.1,0.3,0.2,0.4,0.2c2.7,0,5.5,0,8.2,0c0.7,0,1.2-0.5,1.2-1.2c0-1.5,0-2.9,0-4.4c0-0.7-0.5-1.2-1.2-1.2
		c-0.3,0-0.7,0-1.1,0c0-0.7,0-1.4,0-2.1c0-0.8-0.5-1.2-1.2-1.2c-1.4,0-2.8,0-4.3,0c-0.8,0-1.2,0.5-1.3,1.3c0,0.7,0,1.4,0,2.1
		c-0.2,0-0.3,0-0.4,0c-0.7,0-1.5,0-2.2,0c-0.1,0-0.2-0.1-0.3-0.2c-1.6-3.8-4.4-6-8.6-6.5c-0.8-0.1-1.7,0-2.5,0.1
		c0.1,0.1,0.1,0.1,0.1,0.2C13.2,10.5,17.6,14.9,21.9,19.2z"/>
</g>
</svg>
