<?xml version="1.0" encoding="utf-8"?>
<!-- Generator: Adobe Illustrator 24.3.0, SVG Export Plug-In . SVG Version: 6.00 Build 0)  -->
<svg version="1.1" id="Layer_1" xmlns="http://www.w3.org/2000/svg" xmlns:xlink="http://www.w3.org/1999/xlink" x="0px" y="0px"
	 viewBox="0 0 32 32" style="enable-background:new 0 0 32 32;" xml:space="preserve">
<g>
	<path d="M28.6,10c0-0.2-0.1-0.4-0.2-0.5c-3-3-6-6-9-9c-0.1-0.1-0.4-0.2-0.5-0.2c-4,0-8.1,0-12.1,0c-0.3,0-0.5,0-0.8,0.1
		C4.4,0.6,3.4,1.9,3.4,3.6c0,4.1,0,8.3,0,12.4c0,4.1,0,8.3,0,12.4c0,2,1.3,3.4,3.3,3.4c6.2,0,12.4,0,18.5,0c2,0,3.3-1.3,3.3-3.3
		C28.6,22.3,28.6,16.2,28.6,10z M11.3,23c-0.5,0.2-1.1,0.2-1.8,0.3c0,0.7,0,1.4,0,2.1c-0.5,0-0.9,0-1.4,0c0-0.1,0-0.2,0-0.3
		c0-1.8,0-3.7,0-5.5c0-0.3,0.1-0.4,0.4-0.4c0.8,0,1.7-0.1,2.5,0c1,0.1,1.5,0.8,1.6,1.6C12.7,21.9,12.3,22.7,11.3,23z M19.1,22.7
		c-0.2,1.6-1.1,2.5-2.8,2.8c-0.9,0.1-1.8,0.1-2.7,0c0-2.1,0-4.1,0-6.2c1.3-0.1,2.5-0.3,3.7,0.2C18.6,19.9,19.3,21.2,19.1,22.7z
		 M23.9,20.4c-0.4,0-0.8,0-1.2,0c-0.4,0-0.8,0-1.2,0c0,0.5,0,0.9,0,1.4c0.7,0,1.5,0,2.2,0c0,0.4,0,0.8,0,1.1c-0.7,0-1.5,0-2.2,0
		c0,0.9,0,1.7,0,2.5c-0.5,0-0.9,0-1.4,0c0-2.1,0-4.1,0-6.2c1.3,0,2.5,0,3.8,0C23.9,19.6,23.9,20,23.9,20.4z M17.6,11.2
		c0-2.6,0-5.2,0-7.7c2.6,2.6,5.1,5.1,7.7,7.7C22.8,11.2,20.2,11.2,17.6,11.2z"/>
	<path d="M15,20.3c0,1.3,0,2.7,0,4.1c1.2,0.1,1.9-0.2,2.3-0.9c0.4-0.8,0.3-2-0.2-2.6C16.7,20.3,15.8,20.1,15,20.3z"/>
	<path d="M9.5,20.3c0,0.6,0,1.2,0,1.8c0.7,0.2,1.3,0,1.6-0.4c0.2-0.3,0.2-0.8-0.1-1.1C10.7,20.2,10.1,20.1,9.5,20.3z"/>
</g>
</svg>
