<?xml version="1.0" encoding="utf-8"?>
<!-- Generator: Adobe Illustrator 24.3.0, SVG Export Plug-In . SVG Version: 6.00 Build 0)  -->
<svg version="1.1" id="Layer_1" xmlns="http://www.w3.org/2000/svg" xmlns:xlink="http://www.w3.org/1999/xlink" x="0px" y="0px"
	 viewBox="0 0 32 32" style="enable-background:new 0 0 32 32;" xml:space="preserve">
<g>
	<path d="M9.9,0.2c0.6,0.2,1,0.6,1.4,1c4.5,4.5,8.9,8.9,13.4,13.4c0.5,0.5,0.8,1.2,0.6,1.9c-0.1,0.3-0.3,0.6-0.5,0.8
		c-4.6,4.6-9.2,9.3-13.9,13.9c-0.8,0.8-1.8,0.8-2.6,0c-0.4-0.4-0.7-0.7-1.1-1.1c-0.6-0.7-0.5-1.6,0-2.2c0.1-0.1,0.2-0.2,0.3-0.3
		c3.8-3.8,7.5-7.5,11.3-11.3c0.1-0.1,0.2-0.2,0.4-0.4c-0.1-0.1-0.2-0.1-0.3-0.2C15,11.9,11.2,8.1,7.4,4.3C6.7,3.6,6.5,2.7,7.1,2
		c0.6-0.7,1.2-1.4,2.1-1.7C9.4,0.2,9.6,0.2,9.9,0.2z"/>
</g>
</svg>
